TITLE ""
FILE "1Q_t_0769-0778.mp3" MP3
  TRACK 01 AUDIO
    TITLE "1Q_t_0769-0778_01"
    INDEX 01 00:00:00
  TRACK 02 AUDIO
    TITLE "1Q_t_0769-0778_02"
    INDEX 01 00:01:14
  TRACK 03 AUDIO
    TITLE "1Q_t_0769-0778_03"
    INDEX 01 00:01:23
  TRACK 04 AUDIO
    TITLE "1Q_t_0769-0778_04"
    INDEX 01 00:03:32
  TRACK 05 AUDIO
    TITLE "1Q_t_0769-0778_05"
    INDEX 01 00:03:40
  TRACK 06 AUDIO
    TITLE "1Q_t_0769-0778_06"
    INDEX 01 00:09:56
  TRACK 07 AUDIO
    TITLE "1Q_t_0769-0778_07"
    INDEX 01 00:10:26
  TRACK 08 AUDIO
    TITLE "1Q_t_0769-0778_08"
    INDEX 01 00:11:51
  TRACK 09 AUDIO
    TITLE "1Q_t_0769-0778_09"
    INDEX 01 00:11:59
  TRACK 10 AUDIO
    TITLE "1Q_t_0769-0778_10"
    INDEX 01 00:13:68
  TRACK 11 AUDIO
    TITLE "1Q_t_0769-0778_11"
    INDEX 01 00:14:01
  TRACK 12 AUDIO
    TITLE "1Q_t_0769-0778_12"
    INDEX 01 00:17:62
  TRACK 13 AUDIO
    TITLE "1Q_t_0769-0778_13"
    INDEX 01 00:18:34
  TRACK 14 AUDIO
    TITLE "1Q_t_0769-0778_14"
    INDEX 01 00:19:47
  TRACK 15 AUDIO
    TITLE "1Q_t_0769-0778_15"
    INDEX 01 00:19:53
  TRACK 16 AUDIO
    TITLE "1Q_t_0769-0778_16"
    INDEX 01 00:22:10
  TRACK 17 AUDIO
    TITLE "1Q_t_0769-0778_17"
    INDEX 01 00:22:18
  TRACK 18 AUDIO
    TITLE "1Q_t_0769-0778_18"
    INDEX 01 00:27:05
  TRACK 19 AUDIO
    TITLE "1Q_t_0769-0778_19"
    INDEX 01 00:27:52
  TRACK 20 AUDIO
    TITLE "1Q_t_0769-0778_20"
    INDEX 01 00:28:56
  TRACK 21 AUDIO
    TITLE "1Q_t_0769-0778_21"
    INDEX 01 00:28:63
  TRACK 22 AUDIO
    TITLE "1Q_t_0769-0778_22"
    INDEX 01 00:30:72
  TRACK 23 AUDIO
    TITLE "1Q_t_0769-0778_23"
    INDEX 01 00:31:05
  TRACK 24 AUDIO
    TITLE "1Q_t_0769-0778_24"
    INDEX 01 00:38:09
  TRACK 25 AUDIO
    TITLE "1Q_t_0769-0778_25"
    INDEX 01 00:38:58
  TRACK 26 AUDIO
    TITLE "1Q_t_0769-0778_26"
    INDEX 01 00:39:57
  TRACK 27 AUDIO
    TITLE "1Q_t_0769-0778_27"
    INDEX 01 00:39:67
  TRACK 28 AUDIO
    TITLE "1Q_t_0769-0778_28"
    INDEX 01 00:41:66
  TRACK 29 AUDIO
    TITLE "1Q_t_0769-0778_29"
    INDEX 01 00:41:72
  TRACK 30 AUDIO
    TITLE "1Q_t_0769-0778_30"
    INDEX 01 00:47:49
  TRACK 31 AUDIO
    TITLE "1Q_t_0769-0778_31"
    INDEX 01 00:48:19
  TRACK 32 AUDIO
    TITLE "1Q_t_0769-0778_32"
    INDEX 01 00:49:19
  TRACK 33 AUDIO
    TITLE "1Q_t_0769-0778_33"
    INDEX 01 00:49:28
  TRACK 34 AUDIO
    TITLE "1Q_t_0769-0778_34"
    INDEX 01 00:51:29
  TRACK 35 AUDIO
    TITLE "1Q_t_0769-0778_35"
    INDEX 01 00:51:37
  TRACK 36 AUDIO
    TITLE "1Q_t_0769-0778_36"
    INDEX 01 00:58:06
  TRACK 37 AUDIO
    TITLE "1Q_t_0769-0778_37"
    INDEX 01 00:58:51
  TRACK 38 AUDIO
    TITLE "1Q_t_0769-0778_38"
    INDEX 01 00:59:66
  TRACK 39 AUDIO
    TITLE "1Q_t_0769-0778_39"
    INDEX 01 01:00:01
  TRACK 40 AUDIO
    TITLE "1Q_t_0769-0778_40"
    INDEX 01 01:02:51
  TRACK 41 AUDIO
    TITLE "1Q_t_0769-0778_41"
    INDEX 01 01:02:56
  TRACK 42 AUDIO
    TITLE "1Q_t_0769-0778_42"
    INDEX 01 01:08:08
  TRACK 43 AUDIO
    TITLE "1Q_t_0769-0778_43"
    INDEX 01 01:08:53
  TRACK 44 AUDIO
    TITLE "1Q_t_0769-0778_44"
    INDEX 01 01:10:05
  TRACK 45 AUDIO
    TITLE "1Q_t_0769-0778_45"
    INDEX 01 01:10:13
  TRACK 46 AUDIO
    TITLE "1Q_t_0769-0778_46"
    INDEX 01 01:11:26
  TRACK 47 AUDIO
    TITLE "1Q_t_0769-0778_47"
    INDEX 01 01:11:34
  TRACK 48 AUDIO
    TITLE "1Q_t_0769-0778_48"
    INDEX 01 01:17:23
  TRACK 49 AUDIO
    TITLE "1Q_t_0769-0778_49"
    INDEX 01 01:17:70
  TRACK 50 AUDIO
    TITLE "1Q_t_0769-0778_50"
    INDEX 01 01:19:31
  TRACK 51 AUDIO
    TITLE "1Q_t_0769-0778_51"
    INDEX 01 01:19:41
  TRACK 52 AUDIO
    TITLE "1Q_t_0769-0778_52"
    INDEX 01 01:21:42
  TRACK 53 AUDIO
    TITLE "1Q_t_0769-0778_53"
    INDEX 01 01:21:48
  TRACK 54 AUDIO
    TITLE "1Q_t_0769-0778_54"
    INDEX 01 01:27:74
  TRACK 55 AUDIO
    TITLE "1Q_t_0769-0778_55"
    INDEX 01 01:28:46
  TRACK 56 AUDIO
    TITLE "1Q_t_0769-0778_56"
    INDEX 01 01:29:63
  TRACK 57 AUDIO
    TITLE "1Q_t_0769-0778_57"
    INDEX 01 01:29:71
  TRACK 58 AUDIO
    TITLE "1Q_t_0769-0778_58"
    INDEX 01 01:31:11
  TRACK 59 AUDIO
    TITLE "1Q_t_0769-0778_59"
    INDEX 01 01:31:17
  TRACK 60 AUDIO
    TITLE "1Q_t_0769-0778_60"
    INDEX 01 01:37:22
